<?xml version="1.0" encoding="UTF-8" standalone="no"?>
<svg
   xmlns:dc="http://purl.org/dc/elements/1.1/"
   xmlns:cc="http://creativecommons.org/ns#"
   xmlns:rdf="http://www.w3.org/1999/02/22-rdf-syntax-ns#"
   xmlns:svg="http://www.w3.org/2000/svg"
   xmlns="http://www.w3.org/2000/svg"
   xmlns:sodipodi="http://sodipodi.sourceforge.net/DTD/sodipodi-0.dtd"
   xmlns:inkscape="http://www.inkscape.org/namespaces/inkscape"
   width="46.022732"
   height="49.15033"
   version="1.1"
   viewBox="0 0 46.022731 49.150342"
   id="svg4133"
   sodipodi:docname="planeB.svg"
   inkscape:version="0.92.2 (5c3e80d, 2017-08-06)">
  <metadata
     id="metadata4137">
    <rdf:RDF>
      <cc:Work
         rdf:about="">
        <dc:format>image/svg+xml</dc:format>
        <dc:type
           rdf:resource="http://purl.org/dc/dcmitype/StillImage" />
        <dc:title></dc:title>
      </cc:Work>
    </rdf:RDF>
  </metadata>
  <sodipodi:namedview
     pagecolor="#ffffff"
     bordercolor="#666666"
     borderopacity="1"
     objecttolerance="10"
     gridtolerance="10"
     guidetolerance="10"
     inkscape:pageopacity="0"
     inkscape:pageshadow="2"
     inkscape:window-width="2560"
     inkscape:window-height="1018"
     id="namedview4135"
     showgrid="false"
     inkscape:zoom="7.0758865"
     inkscape:cx="54.819717"
     inkscape:cy="9.8183807"
     inkscape:window-x="-8"
     inkscape:window-y="-8"
     inkscape:window-maximized="1"
     inkscape:current-layer="svg4133"
     fit-margin-top="0"
     fit-margin-left="0"
     fit-margin-right="0"
     fit-margin-bottom="0" />
  <defs
     id="defs4097">
    <radialGradient
       id="radialGradient30"
       cx="0"
       cy="0"
       r="1"
       gradientTransform="matrix(639.99996,0,0,319.99998,639.99996,320)"
       gradientUnits="userSpaceOnUse">
      <stop
         stop-color="#6dcff6"
         offset="0"
         id="stop4090" />
      <stop
         stop-color="#0071bc"
         offset=".737"
         id="stop4092" />
      <stop
         stop-color="#0071bc"
         offset="1"
         id="stop4094" />
    </radialGradient>
  </defs>
  <g
     id="planeA"
     inkscape:label="planeA"
     transform="matrix(-0.09935359,0.03881546,0.03881546,0.09935359,343.97197,-546.04747)">
    <path
       id="planeA-r"
       style="fill:#e7e8e9;stroke-width:1.33339953"
       d="m 4714.8597,3654 -26.9503,12.8381 c -2.6924,1.2839 -5.0664,4.7657 -5.2727,7.7417 l -5.3437,76.2825 c -6.765,2.4486 -14.3765,5.9155 -14.9982,7.3368 -2.6796,6.1005 3.8013,22.7143 9.9021,25.3845 0.4235,0.1891 1.4425,0.082 2.8265,-0.2268 l -1.1443,16.3377 c -6.8932,2.4587 -14.9004,6.0693 -15.5363,7.529 -2.6756,6.1006 3.8053,22.7144 9.9034,25.3846 0.479,0.2118 1.6993,0.052 3.3524,-0.3501 l -2.7617,39.4662 c -13.808,5.0344 -27.6068,10.2332 -41.2618,15.5554 -60.411,23.5562 -88.2098,55.7937 -79.2738,78.6871 l 401.4375,-156.4951 c -1.6955,-4.347 -9.0285,-6.3166 -20.8006,-6.262 l -8.2283,-50.9259 c -0.3771,-2.9583 -2.8884,-4.3295 -5.5794,-3.047 l -19.3688,9.8881 c -2.6897,1.2839 -5.0638,4.767 -5.2727,7.7416 l -2.7408,41.0673 c -37.4051,6.7534 -88.2751,20.3263 -143.2449,37.9203 l -24.0274,-188.7875 c -0.377,-2.9582 -2.887,-4.3295 -5.5794,-3.0456"
       inkscape:connector-curvature="0"
       inkscape:label="planeA-r" />
    <path
       id="planeA-l"
       style="fill:#ffffff;stroke-width:1.33339953"
       d="m 4882.8597,4083 -28.5319,8.7953 c -2.8492,0.8773 -6.9552,-0.078 -9.1205,-2.1266 l -55.574,-52.512 c -6.6397,2.7771 -14.5903,5.3847 -16.0155,4.7603 -6.1006,-2.6783 -12.5816,-19.288 -9.9034,-25.3846 0.1851,-0.4236 1.0084,-1.0357 2.2355,-1.7459 l -11.9074,-11.2527 c -6.7363,2.8588 -15.0761,5.6196 -16.5276,4.9785 -6.0993,-2.6769 -12.579,-19.288 -9.9021,-25.3846 0.2091,-0.4777 1.2148,-1.1867 2.7075,-2.0117 l -28.7584,-27.1668 c -13.5696,5.6445 -27.2427,11.1611 -40.8978,16.4847 -60.411,23.5562 -102.6928,18.6662 -111.6286,-4.2379 l 401.4375,-156.4951 c 1.6955,4.347 -2.3668,10.7591 -11.0668,18.6956 l 28.423,43.0441 c 1.7263,2.4338 0.8051,5.1389 -2.044,6.0174 l -20.9503,5.8412 c -2.8492,0.8786 -6.9552,-0.078 -9.1245,-2.1267 l -29.8227,-28.3666 c -32.0961,20.3548 -78.7243,44.8087 -131.0695,69.0559 l 110.1341,155.15 c 1.7238,2.4324 0.8052,5.1402 -2.044,6.0201"
       inkscape:connector-curvature="0"
       inkscape:label="planeA-l" />
  </g>
</svg>
